Coordinates
version=1
nRows=26
nColumns=24
inDegrees=yes

Units are S.I. units (second, meters, Newtons, ...)
Angles are in degrees.

endheader
time	pelvis_tilt	pelvis_list	pelvis_rotation	pelvis_tx	pelvis_ty	pelvis_tz	hip_flexion_r	hip_adduction_r	hip_rotation_r	knee_angle_r	ankle_angle_r	subtalar_angle_r	mtp_angle_r	hip_flexion_l	hip_adduction_l	hip_rotation_l	knee_angle_l	ankle_angle_l	subtalar_angle_l	mtp_angle_l	lumbar_extension	lumbar_bending	lumbar_rotation
      1.90000000	     -7.76493163	     -2.62963767	      1.33326074	      0.24335472	      1.28510423	     -0.91036238	      9.55668698	      8.47123773	     14.70264644	     -3.07874250	     -2.77782609	     -6.48757274	     -1.04658684	     23.28885318	      0.60162719	     -5.90638668	    -57.82724793	    -10.88289903	    -29.39642520	      6.98521500	      0.51704825	      3.46003054	     -5.31998379
      1.90500000	     -7.59201638	     -2.58508764	      1.21467294	      0.24918372	      1.28540722	     -0.91043057	      8.63952414	      8.39204764	     14.85323688	     -2.54222580	     -2.65932834	     -6.45015667	     -1.00057772	     23.81645705	      0.76103242	     -5.73599116	    -57.42812608	     -9.85437145	    -29.05408315	      7.06899673	      0.33376647	      3.45607283	     -5.06090210
      1.91000000	     -7.46643086	     -2.58158013	      1.20994983	      0.25489403	      1.28554705	     -0.91064353	      7.78921195	      8.33224890	     14.87919953	     -2.01391063	     -2.51836365	     -6.46322399	     -0.93432266	     24.44597499	      0.94927747	     -5.38948818	    -57.03368570	     -8.79538679	    -28.54903975	      7.18319820	      0.19531509	      3.48113664	     -4.95154358
      1.91500000	     -7.31942855	     -2.61552101	      1.27237716	      0.26039961	      1.28559316	     -0.91097980	      6.95026455	      8.30057751	     14.86244156	     -1.52131274	     -2.36858430	     -6.47145329	     -0.86436575	     25.08490684	      1.15518349	     -4.92043445	    -56.61518535	     -7.81886640	    -28.11476852	      7.28157975	      0.00260928	      3.54675806	     -4.89187729
      1.92000000	     -7.18141395	     -2.66757360	      1.35861002	      0.26578849	      1.28554424	     -0.91135307	      6.15934945	      8.28959562	     14.83189513	     -1.08500037	     -2.17987293	     -6.43983581	     -0.74063510	     25.73688782	      1.36393540	     -4.39471230	    -56.14984443	     -6.82945015	    -27.60852493	      7.39013493	     -0.19265801	      3.62736606	     -4.84842967
      1.92500000	     -7.03343884	     -2.76336743	      1.51857558	      0.27109134	      1.28540731	     -0.91186059	      5.35749593	      8.31520306	     14.72944120	     -0.63280215	     -2.03665856	     -6.50169730	     -0.68282796	     26.39777942	      1.58714197	     -3.75114743	    -55.65268179	     -6.04024452	    -27.30120754	      7.45046714	     -0.40735717	      3.76183016	     -4.89648996
      1.93000000	     -6.88289589	     -2.83745127	      1.61576680	      0.27635969	      1.28522320	     -0.91227340	      4.59827729	      8.33685376	     14.71085559	     -0.26295206	     -1.83083881	     -6.48255025	     -0.55139216	     27.00824625	      1.79083352	     -3.17884073	    -55.06264529	     -5.15455230	    -26.84006421	      7.53688079	     -0.63162622	      3.87048068	     -4.86247414
      1.93500000	     -6.73865560	     -2.92544948	      1.70138176	      0.28160253	      1.28497258	     -0.91268808	      3.86579590	      8.38201878	     14.72884764	      0.07346781	     -1.63957037	     -6.57874348	     -0.48593455	     27.61056546	      1.98433170	     -2.59498871	    -54.41329188	     -4.45978257	    -26.57267875	      7.57324376	     -0.85964653	      4.00312557	     -4.85404275
      1.94000000	     -6.58827426	     -2.99486674	      1.71011711	      0.28681936	      1.28469860	     -0.91299181	      3.16481604	      8.42459573	     14.86123156	      0.34075751	     -1.42554423	     -6.65981028	     -0.38406672	     28.15591580	      2.13896631	     -2.10356733	    -53.67018190	     -3.74297329	    -26.22086188	      7.61466860	     -1.10158657	      4.11857730	     -4.74866417
      1.94500000	     -6.45647761	     -3.05494654	      1.65934553	      0.29200199	      1.28437645	     -0.91321497	      2.52643020	      8.47067604	     15.08934042	      0.53158057	     -1.18610704	     -6.77709404	     -0.28203086	     28.68399970	      2.26451844	     -1.67115271	    -52.84405627	     -3.09061417	    -25.94382286	      7.63106706	     -1.33126439	      4.22734648	     -4.59487491
      1.95000000	     -6.34367055	     -3.12778289	      1.54683065	      0.29714659	      1.28399334	     -0.91336963	      1.93149744	      8.53685852	     15.42241930	      0.68815860	     -0.95421461	     -6.95532472	     -0.14917792	     29.21507558	      2.32365572	     -1.30991019	    -51.97645385	     -2.51644340	    -25.62750724	      7.64715785	     -1.54714610	      4.35238074	     -4.34640463
      1.95500000	     -6.22732655	     -3.17838032	      1.37110524	      0.30219177	      1.28360024	     -0.91344404	      1.39871740	      8.59506527	     15.82855016	      0.72762726	     -0.68566518	     -7.13041945	     -0.05939315	     29.69653973	      2.36793599	     -1.00434033	    -51.00603867	     -2.02642505	    -25.46941161	      7.63501661	     -1.79698545	      4.46240192	     -4.08933203
      1.96000000	     -6.15151088	     -3.25577378	      1.13585117	      0.30718461	      1.28312036	     -0.91343938	      0.91109778	      8.68200834	     16.40170485	      0.78402803	     -0.52682198	     -7.54452422	      0.13488667	     30.21585623	      2.32281624	     -0.76811817	    -50.02005859	     -1.49824136	    -25.13103115	      7.62187072	     -2.00837314	      4.60076684	     -3.74034071
      1.96500000	     -6.03567832	     -3.30063980	      0.83897951	      0.31206358	      1.28269771	     -0.91335151	      0.46643959	      8.75408165	     16.95234932	      0.67344029	     -0.18555934	     -7.69312974	      0.20098352	     30.63584240	      2.26962171	     -0.59282425	    -48.91247178	     -1.18826063	    -25.06308399	      7.59751127	     -2.29412391	      4.70238252	     -3.35712365
      1.97000000	     -5.92973521	     -3.35149149	      0.46687569	      0.31684943	      1.28224244	     -0.91316285	      0.06017431	      8.83894400	     17.64375862	      0.52507780	      0.09774089	     -7.97106027	      0.27933664	     31.04206075	      2.13700470	     -0.51353376	    -47.75898510	     -0.86992034	    -24.89295138	      7.58183861	     -2.58858425	      4.80989909	     -2.89215177
      1.97500000	     -5.89575290	     -3.43795150	      0.02474861	      0.32152895	      1.28166908	     -0.91286056	     -0.27568044	      8.96175651	     18.62883246	      0.41665527	      0.16988624	     -8.75291387	      0.46893093	     31.52323179	      1.90063053	     -0.49776890	    -46.60244243	     -0.44525662	    -24.53220767	      7.55818776	     -2.82371136	      4.95396655	     -2.34805681
      1.98000000	     -5.78695008	     -3.48874284	     -0.43426022	      0.32613075	      1.28120711	     -0.91256995	     -0.60427698	      9.06228090	     19.36759411	      0.12680344	      0.54276560	     -8.90303784	      0.54807058	     31.85975486	      1.68338792	     -0.51527869	    -45.31529035	     -0.29961477	    -24.43943640	      7.53344070	     -3.16469837	      5.06027828	     -1.81230224
      1.98500000	     -5.75987735	     -3.57704350	     -0.98839026	      0.33063522	      1.28061266	     -0.91208868	     -0.86331803	      9.20872871	     20.50781286	     -0.10686379	      0.63247111	     -9.74227493	      0.74237563	     32.28054042	      1.32792131	     -0.64386793	    -44.04351728	      0.02391747	    -24.05926072	      7.51480950	     -3.42931518	      5.18924195	     -1.16074875
      1.99000000	     -5.69701432	     -3.65495627	     -1.55017287	      0.33508800	      1.28006614	     -0.91161729	     -1.12414821	      9.34900511	     21.51338759	     -0.41698703	      0.85038400	    -10.24852915	      0.92988504	     32.61305259	      0.96612560	     -0.79469788	    -42.68431056	      0.20218515	    -23.78273362	      7.49346773	     -3.75196101	      5.30309484	     -0.51632392
      1.99500000	     -5.64155327	     -3.74061674	     -2.13827670	      0.33949977	      1.27949881	     -0.91109564	     -1.36212752	      9.50426510	     22.54632356	     -0.76042679	      1.07352111	    -10.75616079	      1.08893190	     32.91787924	      0.55679916	     -0.99230633	    -41.27734027	      0.35012040	    -23.45481984	      7.48868334	     -4.07167237	      5.41393827	      0.15317817
      2.00000000	     -5.60396638	     -3.82849306	     -2.75288932	      0.34388958	      1.27892326	     -0.91054220	     -1.57395997	      9.66498841	     23.58391356	     -1.12124963	      1.28139576	    -11.22277767	      1.23890349	     33.20009421	      0.11219066	     -1.22916245	    -39.81856767	      0.45198289	    -23.09318749	      7.49981190	     -4.38037621	      5.52253120	      0.84539430
      2.00500000	     -5.55950164	     -3.92334809	     -3.38443511	      0.34824605	      1.27833920	     -0.90996030	     -1.78897320	      9.83582597	     24.63553143	     -1.49802455	      1.48684308	    -11.68833631	      1.40001917	     33.43424656	     -0.37080056	     -1.51396760	    -38.31362189	      0.52710360	    -22.68299813	      7.51834269	     -4.70904182	      5.62889318	      1.53966485
      2.01000000	     -5.48559758	     -4.00422947	     -3.98047564	      0.35263416	      1.27779504	     -0.90946108	     -2.00971806	      9.99300736	     25.45079850	     -1.94517419	      1.90193349	    -11.72775204	      1.45706736	     33.57451865	     -0.81170214	     -1.76996666	    -36.71309898	      0.41517135	    -22.47088713	      7.52129486	     -5.05658244	      5.71027885	      2.20580058
      2.01500000	     -5.50552107	     -4.13289479	     -4.68730781	      0.35696462	      1.27713805	     -0.90873724	     -2.17374165	     10.20942413	     26.68371919	     -2.30240786	      1.88532782	    -12.46900855	      1.64123537	     33.80971787	     -1.43072120	     -2.20090199	    -35.17975141	      0.60270221	    -21.74209918	      7.61685403	     -5.32353707	      5.83257322	      2.98285869
      2.02000000	     -5.49062030	     -4.24316088	     -5.34957254	      0.36133263	      1.27651873	     -0.90810792	     -2.37036796	     10.39883174	     27.72934320	     -2.68737444	      2.07499553	    -12.89685829	      1.88848876	     33.94613188	     -1.99185285	     -2.59546264	    -33.56023399	      0.57648125	    -21.22515741	      7.67138641	     -5.62113845	      5.92934860	      3.68637396
      2.02500000	     -5.46367477	     -4.36153396	     -6.01647982	      0.36571521	      1.27591318	     -0.90747392	     -2.57045503	     10.60209372	     28.69900182	     -3.10886358	      2.27020052	    -13.20478887	      2.07909119	     34.02080768	     -2.57569578	     -3.03863197	    -31.90491112	      0.53978839	    -20.69741773	      7.75299082	     -5.92940450	      6.01914843	      4.41805095
